/* XPM */
static char * C:\Users\tandr\OneDrive\Desktop\YeetCoinIcons\bitcoin64_xpm[] = {
"64 64 232 2",
"  	c #FFFFFF",
". 	c #FDFDFD",
"+ 	c #F5F5F5",
"@ 	c #D4D4D4",
"# 	c #C7C7C7",
"$ 	c #A9A9A9",
"% 	c #C4C4C4",
"& 	c #F2F2F2",
"* 	c #FCFCFC",
"= 	c #F6F6F6",
"- 	c #999999",
"; 	c #5A5A5A",
"> 	c #000000",
", 	c #555555",
"' 	c #959595",
") 	c #E1E1E1",
"! 	c #8A8A8A",
"~ 	c #272727",
"{ 	c #011E00",
"] 	c #023F01",
"^ 	c #045C01",
"/ 	c #077402",
"( 	c #087802",
"_ 	c #087702",
": 	c #045B01",
"< 	c #024301",
"[ 	c #012000",
"} 	c #0E0E0E",
"| 	c #868686",
"1 	c #DBDBDB",
"2 	c #D7D7D7",
"3 	c #696969",
"4 	c #012500",
"5 	c #066702",
"6 	c #098003",
"7 	c #0C9404",
"8 	c #0D9804",
"9 	c #0C9504",
"0 	c #098103",
"a 	c #066802",
"b 	c #012F00",
"c 	c #5B5B5B",
"d 	c #D2D2D2",
"e 	c #FEFEFE",
"f 	c #EBEBEB",
"g 	c #878787",
"h 	c #000400",
"i 	c #087C03",
"j 	c #023E01",
"k 	c #7E7E7E",
"l 	c #E5E5E5",
"m 	c #C1C1C1",
"n 	c #034701",
"o 	c #0D9904",
"p 	c #076E02",
"q 	c #001200",
"r 	c #111111",
"s 	c #B5B5B5",
"t 	c #FAFAFA",
"u 	c #9F9F9F",
"v 	c #001400",
"w 	c #055D01",
"x 	c #000A00",
"y 	c #0B8E03",
"z 	c #001300",
"A 	c #077202",
"B 	c #001600",
"C 	c #929292",
"D 	c #F7F7F7",
"E 	c #F8F8F8",
"F 	c #023D01",
"G 	c #0B8903",
"H 	c #035101",
"I 	c #024101",
"J 	c #055F01",
"K 	c #012300",
"L 	c #0B8C03",
"M 	c #787878",
"N 	c #F0F0F0",
"O 	c #575757",
"P 	c #045701",
"Q 	c #0C9104",
"R 	c #0B8D03",
"S 	c #077102",
"T 	c #0A8803",
"U 	c #087502",
"V 	c #0C9304",
"W 	c #474747",
"X 	c #EAEAEA",
"Y 	c #045A01",
"Z 	c #0D9604",
"` 	c #056302",
" .	c #001500",
"..	c #0C9004",
"+.	c #045501",
"@.	c #023B01",
"#.	c #0D9704",
"$.	c #056202",
"%.	c #919191",
"&.	c #013000",
"*.	c #045401",
"=.	c #0A8603",
"-.	c #087B03",
";.	c #7C7C7C",
">.	c #B6B6B6",
",.	c #024001",
"'.	c #0A8403",
").	c #023C01",
"!.	c #034C01",
"~.	c #034D01",
"{.	c #A6A6A6",
"].	c #E2E2E2",
"^.	c #2A2A2A",
"/.	c #034901",
"(.	c #087A03",
"_.	c #000300",
":.	c #0A8503",
"<.	c #023600",
"[.	c #181818",
"}.	c #D9D9D9",
"|.	c #686868",
"1.	c #097D03",
"2.	c #0A8303",
"3.	c #000900",
"4.	c #087902",
"5.	c #0D9504",
"6.	c #505050",
"7.	c #F9F9F9",
"8.	c #CCCCCC",
"9.	c #045901",
"0.	c #012800",
"a.	c #056402",
"b.	c #BFBFBF",
"c.	c #444444",
"d.	c #012200",
"e.	c #066A02",
"f.	c #0C8F03",
"g.	c #012700",
"h.	c #056002",
"i.	c #0C9204",
"j.	c #066902",
"k.	c #077002",
"l.	c #000800",
"m.	c #BCBCBC",
"n.	c #024201",
"o.	c #076F02",
"p.	c #515151",
"q.	c #E3E3E3",
"r.	c #045801",
"s.	c #098203",
"t.	c #045601",
"u.	c #012900",
"v.	c #D8D8D8",
"w.	c #AEAEAE",
"x.	c #012E00",
"y.	c #A0A0A0",
"z.	c #6A6A6A",
"A.	c #000500",
"B.	c #066602",
"C.	c #404040",
"D.	c #066B02",
"E.	c #0B8B03",
"F.	c #E8E8E8",
"G.	c #034A01",
"H.	c #034E01",
"I.	c #097F03",
"J.	c #CACACA",
"K.	c #B1B1B1",
"L.	c #0B8A03",
"M.	c #A4A4A4",
"N.	c #013200",
"O.	c #013300",
"P.	c #979797",
"Q.	c #6E6E6E",
"R.	c #000700",
"S.	c #434343",
"T.	c #077302",
"U.	c #6B6B6B",
"V.	c #001700",
"W.	c #9B9B9B",
"X.	c #B9B9B9",
"Y.	c #013400",
"Z.	c #097E03",
"`.	c #D5D5D5",
" +	c #3E3E3E",
".+	c #252525",
"++	c #080808",
"@+	c #E7E7E7",
"#+	c #858585",
"$+	c #D6D6D6",
"%+	c #838383",
"&+	c #6D6D6D",
"*+	c #121212",
"=+	c #055E01",
"-+	c #090909",
";+	c #E0E0E0",
">+	c #A7A7A7",
",+	c #000C00",
"'+	c #0A8703",
")+	c #969696",
"!+	c #5C5C5C",
"~+	c #3F3F3F",
"{+	c #F3F3F3",
"]+	c #141414",
"^+	c #090609",
"/+	c #C0C0C0",
"(+	c #B3B3B3",
"_+	c #CDCDCD",
":+	c #0C8F04",
"<+	c #035001",
"[+	c #484848",
"}+	c #012400",
"|+	c #087A02",
"1+	c #343434",
"2+	c #DADADA",
"3+	c #F1F1F1",
"4+	c #8F8F8F",
"5+	c #034B01",
"6+	c #828282",
"7+	c #EDEDED",
"8+	c #045201",
"9+	c #626262",
"0+	c #CFCFCF",
"a+	c #C2C2C2",
"b+	c #707070",
"c+	c #BBBBBB",
"d+	c #353535",
"e+	c #034F01",
"f+	c #023500",
"g+	c #333333",
"h+	c #373737",
"i+	c #DEDEDE",
"                                                                                                                                ",
"                                                                                                                                ",
"                                                                                                                                ",
"                                                                                                                                ",
"                                                  . + @ # $ $ $ $ $ % @ & *                                                     ",
"                                            = # - ; > > > > > > > > > > > , ' % &                                               ",
"                                      * ) ! ~ > > { ] ^ / ( ( ( ( ( _ : < [ > > } | 1 *                                         ",
"                                    2 3 > > 4 5 6 7 8 8 8 8 8 8 8 8 8 8 8 9 0 a b > > c d e                                     ",
"                                f g > h ] i 7 8 8 8 8 8 8 8 8 8 8 8 8 8 8 8 8 8 9 6 j > > k l                                   ",
"                              m ~ > > n o 8 8 8 8 8 8 8 8 8 8 8 8 8 8 8 8 8 8 8 8 8 p > q > r s e                               ",
"                          t u > v w x x 0 8 8 8 8 8 8 8 8 8 8 8 8 8 8 8 8 8 8 8 8 y z > 5 A B > C D                             ",
"                        E | > F G 8 H > I 8 8 8 8 8 8 8 8 8 8 8 8 8 8 8 8 8 8 8 8 J > K 7 8 L n > M +                           ",
"                      N O > P Q 8 8 R K > S 8 8 8 8 8 8 8 8 8 8 8 8 8 8 8 8 8 8 T B > U 8 8 8 V w > W X                         ",
"                    t g > Y Z 8 8 8 8 ` >  ...8 8 8 8 8 8 8 8 8 8 8 8 8 8 8 8 8 +.> @.Z 8 8 8 8 #.$.> M D                       ",
"                    %.> Y Z 8 8 8 8 8 V &.> *.#.8 8 8 8 8 8 8 8 8 8 8 8 8 8 8 =.> > -.8 8 8 8 8 8 #.$.> ;.e                     ",
"                  >.> ,.#.8 8 8 8 8 8 8 A > > '.8 8 8 8 8 8 8 8 8 8 8 8 8 8 #.).> !.Z 8 8 8 8 8 8 8 8 ~.> {.                    ",
"                ].^.4 Q 8 8 8 8 8 8 8 8 #./.> F 7 8 8 8 8 8 8 8 8 8 8 8 8 8 (.> _.:.8 8 8 8 8 8 8 8 8 V <.[.}.                  ",
"              . |.h 1.8 8 8 8 8 8 8 8 8 8 2.3.> 4.8 8 8 8 8 8 8 8 8 8 8 8 5.F > P 8 8 8 8 8 8 8 8 8 8 8 2.x 6.7.                ",
"              8.> 9.8 8 8 8 8 8 8 8 8 8 8 8 Y > 0.Q 8 8 8 8 8 8 8 8 8 8 8 p > q R 8 8 8 8 8 8 8 8 8 8 8 8 a.> b.                ",
"            E c.v y 8 8 8 8 8 8 8 8 8 8 8 8 R d.> e.8 8 8 8 8 8 8 8 8 8 f.g.> h.8 8 8 8 8 8 8 8 8 8 8 8 8 i.K ~ &               ",
"            # > j.8 8 8 8 8 8 8 8 8 8 8 8 8 8 k.> l.T 8 8 8 8 8 8 8 8 8 5 > K Q 8 8 8 8 8 8 8 8 8 8 8 8 8 8 S > m.              ",
"          * 3 v y 8 8 8 8 8 8 8 8 8 8 8 8 8 8 V n.> *.#.8 8 8 8 8 8 8 y  .> o.8 8 8 8 8 8 8 8 8 8 8 8 8 8 8 i.K p.7.            ",
"          q.> r.8 8 8 8 8 8 8 8 8 8 8 8 8 8 8 8 s.> > 4.8 8 8 8 8 8 8 t.> u.#.8 8 8 8 8 8 8 8 8 8 8 8 8 8 8 8 $.> v.            ",
"          w.> :.8 8 8 8 8 8 8 8 8 8 8 8 8 8 8 8 #.t.> x.V 8 8 8 8 8 =.> > U 8 8 8 8 8 8 8 8 8 8 8 8 8 8 8 8 8 L > y.            ",
"          z.4 #.8 8 8 8 8 8 8 8 8 8 8 8 8 8 8 8 8 Q A.> B.8 8 8 8 #.n > ).Z 8 8 8 8 8 8 8 8 8 8 8 8 8 8 8 8 8 #.).C.e           ",
"        + > r.8 8 8 8 8 8 8 8 8 8 8 8 8 8 8 8 8 8 8 D.>  .E.8 8 8 6 > _.s.8 8 8 8 8 8 8 8 8 8 8 8 8 8 8 8 8 8 8 $.> F.          ",
"        @ > ( 8 8 8 8 8 8 8 8 8 8 8 8 8 8 8 8 8 8 8 5.g.> G.8 8 #.F > H.8 8 8 8 8 8 8 8 8 8 8 8 8 8 8 8 8 8 8 8 I.> J.          ",
"        K.> L.8 8 8 8 8 8 8 8 8 8 8 8 8 8 8 8 8 8 8 8 1.> x 0 8 4.> _.:.8 8 8 8 8 8 8 8 8 8 8 8 8 8 8 8 8 8 8 8 Q > M.          ",
"        {.v Q 8 8 8 8 8 8 8 8 8 8 8 8 8 8 8 8 8 8 8 8 Z n.> N.5.O.> h.8 8 8 8 8 8 8 8 8 8 8 8 8 8 8 8 8 8 8 8 8 5.K P.          ",
"        Q.u.8 8 8 8 8 8 8 8 8 8 8 8 8 8 8 8 8 8 8 8 8 8 T R.> ).> q R 8 8 8 8 8 8 8 8 8 8 8 8 8 8 8 8 8 8 8 8 8 8 n.S.          ",
"        Q.u.8 8 8 8 8 8 8 8 8 8 8 8 8 8 8 8 8 8 8 8 8 8 8 Y > > > e.8 8 8 8 8 8 8 8 8 8 8 8 8 8 8 8 8 8 8 8 8 8 8 n.c.          ",
"        Q.u.8 8 8 8 8 8 8 8 8 8 8 8 8 8 8 8 8 8 8 8 8 8 8 i.d.> K 7 8 8 8 8 8 8 8 8 8 8 8 8 8 8 8 8 8 8 8 8 8 8 8 n.c.          ",
"        Q.u.8 8 8 8 8 8 8 8 8 8 8 8 8 8 8 8 8 8 8 8 8 8 8 8 T.> : 8 8 8 8 8 8 8 8 8 8 8 8 8 8 8 8 8 8 8 8 8 8 8 8 n.c.          ",
"        Q.u.8 8 8 8 8 8 8 8 8 8 8 8 8 8 8 8 8 8 8 8 8 8 8 8 V > : 8 8 8 8 8 8 8 8 8 8 8 8 8 8 8 8 8 8 8 8 8 8 8 8 n.c.          ",
"        | u.8 8 8 8 8 8 8 8 8 8 8 8 8 8 8 8 8 8 8 8 8 8 8 8 V > : 8 8 8 8 8 8 8 8 8 8 8 8 8 8 8 8 8 8 8 8 8 8 8 8 n.U.          ",
"        $ V.i.8 8 8 8 8 8 8 8 8 8 8 8 8 8 8 8 8 8 8 8 8 8 8 V > : 8 8 8 8 8 8 8 8 8 8 8 8 8 8 8 8 8 8 8 8 8 8 8 Z g.W.          ",
"        % > E.8 8 8 8 8 8 8 8 8 8 8 8 8 8 8 8 8 8 8 8 8 8 8 V > : 8 8 8 8 8 8 8 8 8 8 8 8 8 8 8 8 8 8 8 8 8 8 8 V > X.          ",
"        ) > ( 8 8 8 8 8 8 8 8 8 8 8 8 8 8 8 8 8 8 8 8 8 8 8 V > Y.8 8 8 8 8 8 8 8 8 8 8 8 8 8 8 8 8 8 8 8 8 8 8 Z.> `.          ",
"        t  +J 8 8 8 8 8 8 8 8 8 8 8 8 8 8 8 8 8 8 8 8 8 8 8 5.d.g.8 8 8 8 8 8 8 8 8 8 8 8 8 8 8 8 8 8 8 8 8 8 8 a .+&           ",
"          | g.8 8 8 8 8 8 8 8 8 8 8 8 8 8 8 8 8 8 8 8 8 8 8 8 ,.g.8 8 8 8 8 8 8 8 8 8 8 8 8 8 8 8 8 8 8 8 8 8 8 ] U.            ",
"          % > =.8 8 8 8 8 8 8 8 8 8 8 8 8 8 8 8 8 8 8 8 8 8 8 ,.g.8 8 8 8 8 8 8 8 8 8 8 8 8 8 8 8 8 8 8 8 8 8 R > X.            ",
"          & } J 8 8 8 8 8 8 8 8 8 8 8 8 8 8 8 8 8 8 8 8 8 8 8 ,.g.8 8 8 8 8 8 8 8 8 8 8 8 8 8 8 8 8 8 8 8 8 8 a ++@+            ",
"            - B ..8 8 8 8 8 8 8 8 8 8 8 8 8 8 8 8 8 8 8 8 8 8 ,.g.8 8 8 8 8 8 8 8 8 8 8 8 8 8 8 8 8 8 8 8 8 7 g.#+              ",
"            ) > p 8 8 8 8 8 8 8 8 8 8 8 8 8 8 8 8 8 8 8 8 8 8 ,.g.8 8 8 8 8 8 8 8 8 8 8 8 8 8 8 8 8 8 8 8 8 U > $+              ",
"            e %+B ..8 8 8 8 8 8 8 8 8 8 8 8 8 8 8 8 8 8 8 8 8 ,.g.8 8 8 8 8 8 8 8 8 8 8 8 8 8 8 8 8 8 8 8 7 g.&+*               ",
"              f *+=+8 8 8 8 8 8 8 8 8 8 8 8 8 8 8 8 8 8 8 8 8 ,.g.8 8 8 8 8 8 8 8 8 8 8 8 8 8 8 8 8 8 8 8 5 -+;+                ",
"                >+,+s.8 8 8 8 8 8 8 8 8 8 8 8 8 8 8 8 8 8 8 8 ,.g.8 8 8 8 8 8 8 8 8 8 8 8 8 8 8 8 8 8 8 '+V.)+                  ",
"                D !+b 7 8 8 8 8 8 8 8 8 8 8 8 8 8 8 8 8 8 8 8 ,.g.8 8 8 8 8 8 8 8 8 8 8 8 8 8 8 8 8 8 Z j ~+{+                  ",
"                  @+~+G.8 8 8 8 8 8 8 8 8 8 8 8 8 8 8 8 8 8 8 ,.g.8 8 8 8 8 8 8 8 8 8 8 8 8 8 8 8 8 8 t..+;+                    ",
"                    8.]+$.#.8 8 8 8 8 8 8 8 8 8 8 8 8 8 8 8 8 ,.g.8 8 8 8 8 8 8 8 8 8 8 8 8 8 8 8 8 D.^+/+                      ",
"                      m > $.8 8 8 8 8 8 8 8 8 8 8 8 8 8 8 8 8 ,.{ 7 8 8 8 8 8 8 8 8 8 8 8 8 8 8 8 D.> (+                        ",
"                      e (+]+h.V 8 8 8 8 8 8 8 8 8 8 8 8 8 8 8 < > L 8 8 8 8 8 8 8 8 8 8 8 8 8 Z B.^+>+*                         ",
"                          _+]+n R 8 8 8 8 8 8 8 8 8 8 8 8 8 8 a.> L 8 8 8 8 8 8 8 8 8 8 8 8 :+<+++/+                            ",
"                            ].[+}+T.8 8 8 8 8 8 8 8 8 8 8 8 8 a.> L 8 8 8 8 8 8 8 8 8 8 8 |+0.1+2+                              ",
"                              3+4+> 5+2.8 8 8 8 8 8 8 8 8 8 8 a.> L 8 8 8 8 8 8 8 8 8 '+<+> 6+7+                                ",
"                                e `.z.3.<+2.Z 8 8 8 8 8 8 8 8 a.> L 8 8 8 8 8 8 #.=.8+V.9+0+*                                   ",
"                                    7.a+b+> <.p =.Z 8 8 8 8 8 a.> L 8 8 8 #.T k.j > |.c+D                                       ",
"                                        e v.y.d+> N.e+a.-.I.I.8+> / 1.a.8+f+> g+' $+*                                           ",
"                                              7.;+m.P.S.h+> > > > > g+S.%.X.i+D                                                 ",
"                                                        7.f f f f f D                                                           ",
"                                                                                                                                ",
"                                                                                                                                ",
"                                                                                                                                ",
"                                                                                                                                "};
