/* XPM */
static char * C:\Users\tandr\OneDrive\Desktop\YeetCoinIcons\bitcoin32_xpm[] = {
"32 32 157 2",
"  	c #FFFFFF",
". 	c #F2F2F2",
"+ 	c #D0D0D0",
"@ 	c #ADADAD",
"# 	c #8E8E8E",
"$ 	c #808080",
"% 	c #9F9F9F",
"& 	c #BEBEBE",
"* 	c #E1E1E1",
"= 	c #FEFEFE",
"- 	c #DEDEDE",
"; 	c #8F8F8F",
"> 	c #183B17",
", 	c #056202",
"' 	c #087802",
") 	c #0A8803",
"! 	c #098103",
"~ 	c #077102",
"{ 	c #035001",
"] 	c #515151",
"^ 	c #BCBCBC",
"/ 	c #F8F8F8",
"( 	c #F4F4F4",
"_ 	c #979797",
": 	c #001A00",
"< 	c #098003",
"[ 	c #0D9704",
"} 	c #0D9804",
"| 	c #0C8F04",
"1 	c #023801",
"2 	c #4A4A4A",
"3 	c #E9E9E9",
"4 	c #5D615D",
"5 	c #013000",
"6 	c #0A8603",
"7 	c #001B00",
"8 	c #0A8503",
"9 	c #014A00",
"0 	c #AEAEAE",
"a 	c #364336",
"b 	c #0A8703",
"c 	c #087902",
"d 	c #023500",
"e 	c #0D9604",
"f 	c #034901",
"g 	c #066D02",
"h 	c #056001",
"i 	c #A0A0A0",
"j 	c #F3F3F3",
"k 	c #585B58",
"l 	c #0B8903",
"m 	c #034501",
"n 	c #066B02",
"o 	c #097E03",
"p 	c #012D00",
"q 	c #0C9404",
"r 	c #045A01",
"s 	c #BABABA",
"t 	c #919191",
"u 	c #011D00",
"v 	c #0C8F03",
"w 	c #023C01",
"x 	c #087702",
"y 	c #174117",
"z 	c #E3E3E3",
"A 	c #DADADA",
"B 	c #044E02",
"C 	c #055C01",
"D 	c #045C01",
"E 	c #077302",
"F 	c #7C7C7C",
"G 	c #868686",
"H 	c #012400",
"I 	c #012C00",
"J 	c #045301",
"K 	c #E0E0E0",
"L 	c #F0F0F0",
"M 	c #0D4B0B",
"N 	c #077202",
"O 	c #023F01",
"P 	c #066802",
"Q 	c #034B01",
"R 	c #098203",
"S 	c #A3A3A3",
"T 	c #C9C9C9",
"U 	c #011E00",
"V 	c #515851",
"W 	c #011F00",
"X 	c #0C9104",
"Y 	c #055F01",
"Z 	c #045801",
"` 	c #EFEFEF",
" .	c #838383",
"..	c #035101",
"+.	c #001300",
"@.	c #0B8E03",
"#.	c #066602",
"$.	c #DBDBDB",
"%.	c #777777",
"&.	c #0B8C03",
"*.	c #000C00",
"=.	c #066902",
"-.	c #D3D3D3",
";.	c #056002",
">.	c #8D8D8D",
",.	c #0C9204",
"'.	c #056502",
").	c #B0B0B0",
"!.	c #087B03",
"~.	c #115310",
"{.	c #F7F7F7",
"].	c #D6D6D6",
"^.	c #0D9504",
"/.	c #747774",
"(.	c #FAFAFA",
"_.	c #385438",
":.	c #087602",
"<.	c #097D03",
"[.	c #AAA9AA",
"}.	c #174E16",
"|.	c #F1F1F1",
"1.	c #365735",
"2.	c #097F03",
"3.	c #ACACAC",
"4.	c #C0C0C0",
"5.	c #076F02",
"6.	c #0C9304",
"7.	c #576257",
"8.	c #999999",
"9.	c #365E36",
"0.	c #E4E4E4",
"a.	c #FBFBFB",
"b.	c #8A8C8A",
"c.	c #366135",
"d.	c #D7D7D7",
"e.	c #FCFCFC",
"f.	c #A7A8A7",
"g.	c #036500",
"h.	c #0C9504",
"i.	c #546554",
"j.	c #D8D8D8",
"k.	c #667066",
"l.	c #077402",
"m.	c #1B5C19",
"n.	c #A6A6A6",
"o.	c #F5F5F5",
"p.	c #D2D2D2",
"q.	c #8F928F",
"r.	c #087A03",
"s.	c #066702",
"t.	c #045201",
"u.	c #016300",
"v.	c #637162",
"w.	c #B3B3B3",
"x.	c #E5E5E5",
"y.	c #CCCCCC",
"z.	c #DCDCDC",
"                                                                ",
"                                                                ",
"                      . + @ # $ $ % & * =                       ",
"                  - ; > , ' ) ) ) ! ~ { ] ^ /                   ",
"              ( _ : < [ } } } } } } } } | 1 2 +                 ",
"            3 4 ~ 5 ! } } } } } } } } } 6 7 8 9 0 =             ",
"          3 a b } c d e } } } } } } } } f g } e h i             ",
"        j k l } } [ m n } } } } } } } o p q } } [ r s           ",
"        t c } } } } 6 u v } } } } } [ w x } } } } e y z         ",
"      A B } } } } } } C D } } } } } E w [ } } } } } 8 F =       ",
"      G ) } } } } } } | H 8 } } } q I < } } } } } } } J K       ",
"    L M } } } } } } } } N O e } } P Q } } } } } } } } R S       ",
"    T ~ } } } } } } } } [ w E } | U ) } } } } } } } } [ V =     ",
"    i b } } } } } } } } } ! W X Y Z } } } } } } } } } } J `     ",
"     .q } } } } } } } } } } J ..+.@.} } } } } } } } } } #.$.    ",
"    %.[ } } } } } } } } } } &.*.P } } } } } } } } } } } =.-.    ",
"    %.[ } } } } } } } } } } } ;.< } } } } } } } } } } } =.-.    ",
"    >.,.} } } } } } } } } } } #.< } } } } } } } } } } } '.z     ",
"    ).6 } } } } } } } } } } } #.!.} } } } } } } } } } } ~.{.    ",
"    ].g } } } } } } } } } } } E x } } } } } } } } } } ^./.      ",
"    (._.} } } } } } } } } } } :.x } } } } } } } } } } <.s       ",
"      [.R } } } } } } } } } } :.x } } } } } } } } } } }..       ",
"      |.1.[ } } } } } } } } } :.x } } } } } } } } } 2.3.        ",
"        4.5.} } } } } } } } } :.x } } } } } } } } 6.7.{.        ",
"          8.R } } } } } } } } :.x } } } } } } } e 9.0.          ",
"          a.b.o } } } } } } } ' =.} } } } } } 6.c.d.            ",
"            e.f.g.h.} } } } } < #.} } } } } 8 i.z               ",
"                j.k.l.6.} } } < #.} } } 6 m.n.o.                ",
"                  e.p.q.c.g r.s.t.:.u.v.w.`                     ",
"                        a.x.-.y.y.z..                           ",
"                                                                ",
"                                                                "};
