/* XPM */
static char * C:\Users\tandr\OneDrive\Desktop\YeetCoinIcons\bitcoin16_xpm[] = {
"16 16 71 1",
" 	c #FFFFFF",
".	c #FAFAFA",
"+	c #CECECE",
"@	c #9BA59B",
"#	c #7C987C",
"$	c #7C957B",
"%	c #A7AFA7",
"&	c #DBDBDB",
"*	c #E2E2E2",
"=	c #606B60",
"-	c #0B8A03",
";	c #0D9804",
">	c #066702",
",	c #879587",
"'	c #F1F1F1",
")	c #2E7F2C",
"!	c #0C9004",
"~	c #066A02",
"{	c #0C9304",
"]	c #066802",
"^	c #0D9604",
"/	c #628761",
"(	c #F3F3F3",
"_	c #588258",
":	c #077002",
"<	c #0B8B03",
"[	c #066B02",
"}	c #0B8E03",
"|	c #96A296",
"1	c #C6C7C6",
"2	c #0D9504",
"3	c #056002",
"4	c #066D02",
"5	c #098203",
"6	c #EBEBEB",
"7	c #8CA18C",
"8	c #098103",
"9	c #097D03",
"0	c #066602",
"a	c #BFC1BF",
"b	c #698D69",
"c	c #045901",
"d	c #087502",
"e	c #AAB6AA",
"f	c #6F916E",
"g	c #0A8303",
"h	c #0B8903",
"i	c #AAB5AA",
"j	c #94A994",
"k	c #0A8703",
"l	c #C3C6C3",
"m	c #CFD1CF",
"n	c #088201",
"o	c #F0F0F0",
"p	c #FBFBFB",
"q	c #688E67",
"r	c #0D9704",
"s	c #A2ADA1",
"t	c #EAEAEA",
"u	c #418640",
"v	c #7C9A7B",
"w	c #EDEDED",
"x	c #749273",
"y	c #0C9104",
"z	c #0A8A03",
"A	c #9DAB9D",
"B	c #DFDFDF",
"C	c #B2BCB2",
"D	c #94A894",
"E	c #9AAA9A",
"F	c #B9C0B9",
"                ",
"    .+@#$%&     ",
"   *=-;;;;>,'   ",
"  *)!~;;;{]^/(  ",
" ._;;:<;;[};^|  ",
" 1{;;23;}4;;;56 ",
" 7;;;;890{;;;;a ",
" b;;;;;cd;;;;;e ",
" f;;;;;gh;;;;;i ",
" j;;;;;kh;;;;;l ",
" m{;;;;hh;;;;no ",
" pq;;;;hh;;;rs  ",
"  tu;;;hh;;rv.  ",
"   wxy;hk;zA.   ",
"     BCDEFt     ",
"                "};
